<?xml version="1.0" standalone="no"?>
<!DOCTYPE svg PUBLIC "-//W3C//DTD SVG 20010904//EN"
 "http://www.w3.org/TR/2001/REC-SVG-20010904/DTD/svg10.dtd">
<svg version="1.0" xmlns="http://www.w3.org/2000/svg"
 width="72.000000pt" height="72.000000pt" viewBox="0 0 72.000000 72.000000"
 preserveAspectRatio="xMidYMid meet">
<metadata>
Created by potrace 1.14, written by Peter Selinger 2001-2017
</metadata>
<g transform="translate(0.000000,72.000000) scale(0.100000,-0.100000)"
fill="#000000" stroke="none">
<path d="M180 465 c0 -8 -7 -15 -15 -15 -8 0 -15 -7 -15 -15 0 -8 7 -15 15
-15 10 0 15 -10 15 -30 0 -20 5 -30 15 -30 10 0 15 -10 15 -30 0 -27 -3 -30
-30 -30 -20 0 -30 5 -30 15 0 8 -7 15 -15 15 -8 0 -15 -7 -15 -15 0 -8 -7 -15
-15 -15 -8 0 -15 -7 -15 -15 0 -8 7 -15 15 -15 12 0 15 -15 15 -75 0 -60 3
-75 15 -75 8 0 15 -7 15 -15 0 -8 -7 -15 -15 -15 -10 0 -15 -10 -15 -30 0 -20
5 -30 15 -30 8 0 15 -7 15 -15 0 -11 12 -15 45 -15 33 0 45 4 45 15 0 8 -7 15
-15 15 -8 0 -15 7 -15 15 0 10 10 15 30 15 20 0 30 -5 30 -15 0 -8 7 -15 15
-15 8 0 15 -7 15 -15 0 -12 15 -15 75 -15 60 0 75 3 75 15 0 8 -7 15 -15 15
-8 0 -15 7 -15 15 0 8 7 15 15 15 8 0 15 -7 15 -15 0 -8 7 -15 15 -15 8 0 15
-7 15 -15 0 -10 10 -15 30 -15 29 0 30 2 30 45 0 33 4 45 15 45 8 0 15 7 15
15 0 8 7 15 15 15 10 0 15 10 15 30 0 20 5 30 15 30 12 0 15 13 15 60 0 47 -3
60 -15 60 -8 0 -15 7 -15 15 0 8 -7 15 -15 15 -8 0 -15 7 -15 15 0 11 -12 15
-45 15 -33 0 -45 4 -45 15 0 8 -7 15 -15 15 -8 0 -15 7 -15 15 0 8 -7 15 -15
15 -8 0 -15 7 -15 15 0 10 -10 15 -30 15 -20 0 -30 5 -30 15 0 12 -17 15 -90
15 -73 0 -90 -3 -90 -15z m180 -120 c0 -8 7 -15 15 -15 8 0 15 7 15 15 0 8 7
15 15 15 10 0 15 -10 15 -30 0 -29 -2 -30 -45 -30 -43 0 -45 1 -45 30 0 20 5
30 15 30 8 0 15 -7 15 -15z m90 -135 c0 -20 -5 -30 -15 -30 -8 0 -15 -7 -15
-15 0 -10 -10 -15 -30 -15 -20 0 -30 5 -30 15 0 8 -7 15 -15 15 -10 0 -15 10
-15 30 l0 30 60 0 60 0 0 -30z m90 -15 c0 -8 -7 -15 -15 -15 -8 0 -15 7 -15
15 0 8 7 15 15 15 8 0 15 -7 15 -15z"/>
<path d="M360 195 c0 -10 10 -15 30 -15 20 0 30 5 30 15 0 10 -10 15 -30 15
-20 0 -30 -5 -30 -15z"/>
</g>
</svg>
